<?xml version="1.0" standalone="no"?>
<!DOCTYPE svg PUBLIC "-//W3C//DTD SVG 20010904//EN"
 "http://www.w3.org/TR/2001/REC-SVG-20010904/DTD/svg10.dtd">
<svg version="1.0" xmlns="http://www.w3.org/2000/svg"
 width="552.000000pt" height="564.000000pt" viewBox="0 0 552.000000 564.000000"
 preserveAspectRatio="xMidYMid meet">

<g transform="translate(0.000000,564.000000) scale(0.100000,-0.100000)"
fill="#000000" stroke="none">
<path d="M2510 5630 c-538 -56 -1039 -260 -1460 -596 -115 -92 -328 -307 -426
-430 -324 -405 -520 -866 -601 -1409 -25 -169 -25 -581 0 -749 69 -462 214
-850 452 -1205 443 -664 1110 -1092 1890 -1213 171 -26 567 -32 725 -10 519
73 946 253 1360 572 125 96 376 349 471 475 317 417 497 849 576 1380 25 169
25 581 0 749 -98 657 -362 1192 -806 1637 -426 426 -947 691 -1535 780 -149
23 -507 33 -646 19z m490 -41 c848 -78 1607 -555 2066 -1295 191 -308 326
-681 385 -1065 33 -209 33 -609 0 -818 -115 -745 -491 -1382 -1076 -1826
-1186 -900 -2868 -659 -3770 540 -282 375 -462 806 -536 1286 -33 209 -33 609
0 818 47 303 129 565 261 837 141 287 331 547 573 780 560 541 1330 814 2097
743z"/>
<path d="M2325 4110 c-11 -5 -36 -9 -55 -9 -38 -1 -110 -51 -110 -77 0 -8 -3
-14 -8 -14 -4 0 -13 -18 -20 -40 -15 -50 -17 -506 -2 -515 6 -3 10 -15 10 -26
0 -29 51 -99 73 -99 9 0 17 -4 17 -9 0 -20 120 -25 575 -25 455 0 575 5 575
25 0 5 7 9 16 9 20 0 37 17 55 58 7 17 17 32 21 32 5 0 8 128 8 285 0 183 -4
285 -10 285 -5 0 -10 9 -10 20 0 11 -4 20 -10 20 -5 0 -10 6 -10 13 0 19 -59
48 -130 63 -50 11 -168 14 -515 13 -247 0 -459 -4 -470 -9z"/>
<path d="M1571 3073 c-57 -29 -65 -107 -16 -153 19 -18 40 -24 95 -28 l70 -5
0 -288 c0 -186 4 -289 10 -289 6 0 10 -11 10 -25 0 -14 5 -25 10 -25 6 0 10
-7 10 -15 0 -17 64 -85 80 -85 5 0 10 -4 10 -10 0 -5 9 -10 20 -10 11 0 20 -4
20 -10 0 -6 38 -10 95 -10 l95 0 0 -35 c0 -19 -4 -35 -9 -35 -5 0 -11 -15 -14
-32 -3 -18 -10 -51 -15 -73 -6 -22 -20 -80 -32 -130 -12 -49 -26 -98 -31 -107
-5 -10 -9 -31 -9 -48 0 -16 -4 -30 -10 -30 -5 0 -10 -16 -10 -35 0 -19 -4 -35
-10 -35 -5 0 -10 -18 -10 -40 0 -22 -4 -40 -10 -40 -5 0 -10 -16 -10 -35 0
-19 -4 -35 -10 -35 -5 0 -10 -15 -10 -34 0 -19 -4 -38 -10 -41 -14 -9 -12 -97
3 -116 34 -44 107 -52 150 -15 15 13 27 33 27 45 0 11 5 21 10 21 6 0 10 15
10 34 0 19 5 38 10 41 6 3 10 19 10 35 0 16 4 31 9 34 5 3 11 20 14 38 2 18
12 62 22 98 9 36 21 82 26 103 l10 37 619 0 c613 0 620 0 620 -20 0 -11 5 -20
10 -20 6 0 10 -18 10 -40 0 -22 5 -40 10 -40 6 0 10 -13 10 -30 0 -16 4 -39 9
-52 5 -13 14 -41 19 -63 22 -85 44 -161 54 -187 21 -56 95 -76 148 -38 49 35
47 77 -15 305 -25 90 -36 136 -42 173 -3 17 -9 32 -14 32 -5 0 -9 16 -9 35 0
19 -4 35 -10 35 -5 0 -10 18 -10 40 0 22 -4 40 -10 40 -5 0 -10 16 -10 35 0
19 -4 35 -10 35 -5 0 -10 12 -10 26 0 14 -4 33 -9 42 -5 9 -12 41 -16 70 l-7
52 66 0 c80 0 136 27 136 64 0 9 5 16 10 16 14 0 12 76 -2 102 -18 30 -35 48
-46 48 -6 0 -12 6 -14 13 -4 9 -182 13 -829 17 -484 3 -832 9 -844 14 -59 28
-65 53 -65 286 l0 210 99 0 c81 0 100 -3 105 -16 3 -9 6 -54 6 -100 0 -49 4
-84 10 -84 6 0 10 -8 10 -17 0 -25 67 -81 108 -90 21 -5 269 -8 552 -8 491 0
517 1 555 20 49 23 65 39 65 59 0 9 3 16 8 16 14 0 32 81 32 149 l0 70 265 3
265 3 26 27 c36 35 38 104 5 139 l-22 24 -1207 3 c-1135 2 -1209 1 -1241 -15z
m1746 -1008 c8 -27 18 -66 23 -85 5 -19 12 -45 15 -57 l6 -23 -555 0 -556 0 0
27 c0 15 4 40 9 57 5 17 15 51 22 76 7 25 18 48 24 52 5 4 232 7 504 5 l494
-2 14 -50z"/>
</g>
</svg>
