<?xml version="1.0" encoding="UTF-8"?>
<svg version="1.1" xmlns="http://www.w3.org/2000/svg" width="372" height="318">
<path d="M0 0 C1.92468769 0.00103989 3.84937751 -0.00000587 5.77406311 -0.00302124 C9.79102661 -0.00284273 13.80717954 0.01781872 17.82397461 0.05419922 C22.93895167 0.09954097 28.05274589 0.10065762 33.16786861 0.08716393 C37.13768277 0.08043791 41.10723378 0.09383144 45.07699776 0.11342239 C46.96138693 0.12104928 48.84580556 0.12345533 50.73020744 0.1202507 C69.97563606 0.11477737 85.43126925 3.91528863 99.86328125 17.54296875 C107.03515625 24.75354092 107.03515625 24.75354092 107.03515625 27.7265625 C108.06183851 27.72195354 109.08852077 27.71734457 110.14631462 27.71259594 C135.14364605 27.6015302 160.14094543 27.51940151 185.1384716 27.46750164 C197.22716931 27.44173524 209.31570388 27.40661435 221.40429688 27.34936523 C231.94241481 27.2994827 242.48041459 27.26726012 253.01864731 27.25612003 C258.5970721 27.24960956 264.17515888 27.23434023 269.75347519 27.19791222 C275.00823864 27.16387638 280.26252608 27.15352498 285.5173893 27.16102409 C287.44183378 27.15965295 289.36629481 27.14976594 291.29064369 27.13053513 C309.79871029 26.95470943 309.79871029 26.95470943 318.03515625 32.7265625 C318.94265625 33.2834375 319.85015625 33.8403125 320.78515625 34.4140625 C325.88175526 39.6522337 330.14887749 46.49182653 330.17217064 53.9252634 C330.17978245 55.2155707 330.17978245 55.2155707 330.18754804 56.53194481 C330.1880458 57.47744932 330.18854356 58.42295383 330.1890564 59.39710999 C330.19343865 60.40125503 330.1978209 61.40540008 330.20233595 62.43997377 C330.21574118 65.82074284 330.22190674 69.20148583 330.22802734 72.58227539 C330.23592703 74.99996051 330.2441959 77.41764446 330.25280762 79.83532715 C330.27678004 87.10299909 330.29195921 94.37067279 330.30486768 101.63837042 C330.30858041 103.69184048 330.31255359 105.74530986 330.31662035 107.79877925 C330.34186078 120.55559188 330.36390994 133.31240561 330.3763485 146.06923771 C330.37927811 149.02394172 330.38223978 151.97864569 330.38525391 154.93334961 C330.38599996 155.66771185 330.38674601 156.40207409 330.38751467 157.15868973 C330.40016019 169.04699205 330.43337244 180.93514452 330.47505574 192.82337684 C330.51751913 205.0344351 330.54104872 217.24541675 330.54626906 229.45654863 C330.54967851 236.31032295 330.56137802 243.16386325 330.5943718 250.01756477 C330.62537446 256.46818933 330.6307644 262.91851814 330.61898804 269.36920929 C330.61876728 271.73387356 330.62707366 274.09855673 330.64464188 276.46315575 C330.66736499 279.69830204 330.65902256 282.93197455 330.64315796 286.16712952 C330.65704005 287.09701897 330.67092213 288.02690843 330.68522489 288.98497635 C330.58564905 297.25907663 327.35662957 305.18497504 321.70745933 311.35939521 C313.35600035 318.1870102 304.66731727 319.60092629 294.20724487 319.48173523 C292.85106667 319.48794688 291.4948984 319.49677436 290.1387521 319.50796062 C286.44512733 319.53089346 282.75246235 319.51685215 279.05885863 319.49625146 C275.06287949 319.48053406 271.06703841 319.49957468 267.07107544 319.51405334 C259.25663656 319.53681668 251.44255658 319.52744184 243.62812506 319.50655248 C237.27549578 319.49023607 230.92296413 319.48607684 224.57031631 319.49051857 C223.21160825 319.49146458 223.21160825 319.49146458 221.82545153 319.49242971 C219.98507123 319.49377582 218.14469095 319.4951554 216.30431069 319.49656806 C199.06896118 319.50848978 181.83380797 319.48447646 164.59850313 319.44754998 C149.82129592 319.41664883 135.04431443 319.41429289 120.26708984 319.43334961 C103.0882887 319.45547803 85.90961395 319.46159195 68.73080647 319.44102699 C66.89799255 319.43886414 65.06517861 319.43671504 63.23236465 319.43457985 C62.33068346 319.43351348 61.42900227 319.43244712 60.4999974 319.43134844 C54.15662032 319.42488847 47.81330848 319.42963426 41.46993637 319.43860435 C33.73729323 319.44915629 26.00491454 319.44158665 18.27232014 319.41114857 C14.32969409 319.39605473 10.3874849 319.38881078 6.44484711 319.40333939 C2.83123747 319.41641527 -0.78154877 319.40615961 -4.39506374 319.37778065 C-6.31176608 319.36858932 -8.22853826 319.3837418 -10.14519417 319.39994162 C-19.35201207 319.29109646 -27.73525354 316.87135238 -34.59769726 310.3499279 C-44.45520874 298.64500587 -42.80791889 284.83903104 -42.7253418 270.37060547 C-42.73184082 267.68554548 -42.74068231 265.00058489 -42.75233459 262.31555176 C-42.775071 255.80051555 -42.76574041 249.28591045 -42.74483373 242.77088319 C-42.72850263 237.47374083 -42.72436164 232.17671557 -42.72879982 226.87955093 C-42.7294305 226.12361506 -42.73006117 225.36767919 -42.73071096 224.58883617 C-42.7320571 223.05285386 -42.73343668 221.51687158 -42.73484931 219.98088934 C-42.74676451 205.60402043 -42.72277445 191.22738707 -42.68583123 176.85057177 C-42.65492891 164.52936689 -42.6525759 152.20843276 -42.67163086 139.88720703 C-42.69376861 125.55623442 -42.69986495 111.22541336 -42.67930824 96.89443314 C-42.67714544 95.36493629 -42.67499634 93.83543942 -42.6728611 92.30594254 C-42.67179473 91.5535233 -42.67072837 90.80110406 -42.66962969 90.02588423 C-42.66317494 84.73748231 -42.66790972 79.44915872 -42.6768856 74.16076279 C-42.68744698 67.7126818 -42.67983803 61.26491777 -42.64942982 54.81689511 C-42.63435514 51.53040033 -42.62977352 48.24450442 -42.64162064 44.95798111 C-42.65307382 41.38829024 -42.63362415 37.82003458 -42.60649109 34.25045776 C-42.61696258 33.22165178 -42.62743407 32.1928458 -42.63822287 31.13286388 C-42.51723883 22.56581461 -39.56191988 14.47427185 -33.61317444 8.09384155 C-23.33441544 -0.43231886 -12.66380014 -0.13622572 0 0 Z " fill="#74CFFA" transform="translate(41.96484375,-0.7265625)"/>
<path d="M0 0 C1.92468769 0.00103989 3.84937751 -0.00000587 5.77406311 -0.00302124 C9.79102661 -0.00284273 13.80717954 0.01781872 17.82397461 0.05419922 C22.93895167 0.09954097 28.05274589 0.10065762 33.16786861 0.08716393 C37.13768277 0.08043791 41.10723378 0.09383144 45.07699776 0.11342239 C46.96138693 0.12104928 48.84580556 0.12345533 50.73020744 0.1202507 C69.97563606 0.11477737 85.43126925 3.91528863 99.86328125 17.54296875 C107.03515625 24.75354092 107.03515625 24.75354092 107.03515625 27.7265625 C108.06183851 27.72195354 109.08852077 27.71734457 110.14631462 27.71259594 C135.14364605 27.6015302 160.14094543 27.51940151 185.1384716 27.46750164 C197.22716931 27.44173524 209.31570388 27.40661435 221.40429688 27.34936523 C231.94241481 27.2994827 242.48041459 27.26726012 253.01864731 27.25612003 C258.5970721 27.24960956 264.17515888 27.23434023 269.75347519 27.19791222 C275.00823864 27.16387638 280.26252608 27.15352498 285.5173893 27.16102409 C287.44183378 27.15965295 289.36629481 27.14976594 291.29064369 27.13053513 C309.79871029 26.95470943 309.79871029 26.95470943 318.03515625 32.7265625 C318.94265625 33.2834375 319.85015625 33.8403125 320.78515625 34.4140625 C327.22315765 41.03089727 330.19932609 48.13552309 330.1328125 57.23828125 C330.13069008 58.33061821 330.13069008 58.33061821 330.12852478 59.44502258 C330.12293284 61.76807789 330.11038187 64.09103638 330.09765625 66.4140625 C330.09264021 67.99023298 330.08807748 69.56640498 330.08398438 71.14257812 C330.07296605 75.00394348 330.05570699 78.86523658 330.03515625 82.7265625 C329.70515625 82.7265625 329.37515625 82.7265625 329.03515625 82.7265625 C328.79732422 81.87384766 328.79732422 81.87384766 328.5546875 81.00390625 C327.32337998 76.92902668 326.22219049 73.71243959 323.41015625 70.4765625 C320.15045187 66.33664121 320.5463002 61.91262145 320.32421875 56.828125 C319.90711396 52.35270337 318.84840698 50.22411746 316.03515625 46.7265625 C310.20069142 42.55366644 303.62322976 43.30637627 296.75672913 43.33888245 C295.38710148 43.33470799 294.01747729 43.32922985 292.64785951 43.32256263 C288.88953837 43.3081039 285.13143643 43.31235402 281.37310326 43.31972945 C277.31780125 43.32445776 273.26254689 43.31195427 269.20726013 43.30171204 C261.26476737 43.28451221 253.32235367 43.28368646 245.37984712 43.28892494 C238.92456864 43.29296559 232.46931354 43.29152433 226.01403618 43.28617668 C225.09545025 43.28542826 224.17686431 43.28467984 223.23044245 43.28390874 C221.36436776 43.28237727 219.49829308 43.28083892 217.63221841 43.27929377 C200.1309451 43.2655645 182.62971648 43.27100947 165.12844419 43.28247898 C149.11592411 43.29241233 133.10351957 43.27946969 117.09101731 43.25554479 C100.65023111 43.23116499 84.20949874 43.22154313 67.76869482 43.22819752 C58.53806952 43.23169216 49.3075331 43.22944147 40.07692146 43.21194649 C32.21930149 43.19723853 24.36183298 43.19657064 16.50421602 43.2140174 C12.49520973 43.22254132 8.48647416 43.22464319 4.47748184 43.20936584 C0.80655511 43.19554996 -2.86386818 43.20024141 -6.53476555 43.21960508 C-8.48977566 43.22515916 -10.44481121 43.2110677 -12.39977306 43.19625098 C-19.10959725 43.25269289 -23.58471337 43.55274359 -28.96484375 47.7265625 C-31.71450363 52.12601831 -32.06143365 55.45897641 -32.27734375 60.6015625 C-32.60084026 66.22758881 -34.16406092 69.31303187 -37.53125 73.74609375 C-39.3374589 76.24131967 -40.20361018 78.75775156 -40.96484375 81.7265625 C-41.29484375 81.7265625 -41.62484375 81.7265625 -41.96484375 81.7265625 C-42.0812982 74.20682657 -42.16984051 66.68718552 -42.22390461 59.16674995 C-42.24986872 55.67366542 -42.28501901 52.1812031 -42.34204102 48.68847656 C-42.4073559 44.66205274 -42.43113268 40.63627034 -42.453125 36.609375 C-42.47893143 35.37043488 -42.50473785 34.13149475 -42.53132629 32.85501099 C-42.53434046 23.43336872 -40.20883067 15.16812726 -33.61317444 8.09384155 C-23.33441544 -0.43231886 -12.66380014 -0.13622572 0 0 Z " fill="#3EA0DD" transform="translate(41.96484375,-0.7265625)"/>
<path d="M0 0 C1.73629033 -0.00761181 1.73629033 -0.00761181 3.50765723 -0.0153774 C4.78525658 -0.01587516 6.06285593 -0.01637292 7.37917042 -0.01688576 C8.74549304 -0.02090033 10.11181446 -0.02533854 11.47813445 -0.03016531 C15.24123315 -0.04213723 19.00431903 -0.04778069 22.76743305 -0.05234647 C26.8227945 -0.05830019 30.8781406 -0.06991058 34.93349171 -0.08063698 C44.73139424 -0.10516579 54.52930186 -0.11978859 64.32722566 -0.13269705 C67.09409976 -0.13640855 69.86097336 -0.14038181 72.62784696 -0.14444971 C89.80602853 -0.16968518 106.9842109 -0.19174049 124.16240692 -0.20417786 C128.14187275 -0.2071076 132.12133856 -0.21006926 136.10080433 -0.21308327 C137.08989345 -0.21382932 138.07898256 -0.21457537 139.09804408 -0.21534403 C155.12302217 -0.22799941 171.14788935 -0.26122472 187.17281558 -0.3028851 C203.62141044 -0.34529674 220.0699485 -0.36887198 236.5185979 -0.37409842 C245.75548928 -0.37751335 254.99220732 -0.38927821 264.22904491 -0.42220116 C272.09512933 -0.45019222 279.96100487 -0.46120516 287.82713523 -0.4500057 C291.84036718 -0.44481664 295.85316166 -0.44772138 299.86633015 -0.47247124 C303.54243208 -0.49495304 307.21778202 -0.49423302 310.89389703 -0.47526737 C312.84933346 -0.47114145 314.80477437 -0.49162106 316.76009768 -0.51305425 C323.89692639 -0.44859812 329.03720598 0.24747159 334.46823597 5.13701439 C338.61333612 10.44792396 337.74879173 16.71540477 337.46823597 23.13701439 C336.63679066 22.71549095 335.80534534 22.29396751 334.94870472 21.85967064 C333.86202503 21.31181908 332.77534534 20.76396751 331.65573597 20.19951439 C330.57679066 19.65424095 329.49784534 19.10896751 328.38620472 18.54717064 C324.36147022 16.60215169 321.47932884 16.01017506 317.05696678 15.99720669 C315.92629046 15.99151545 314.79561414 15.9858242 313.6306749 15.9799605 C312.38304066 15.97878062 311.13540643 15.97760075 309.8499651 15.97638512 C308.51536661 15.97165466 307.18076956 15.96650382 305.84617418 15.96096748 C302.17061137 15.94705047 298.49505847 15.93947467 294.81947601 15.93299448 C291.66866597 15.92662596 288.51787223 15.91655542 285.36707235 15.90643383 C274.98403488 15.87309647 264.60098748 15.8515839 254.21791402 15.83323398 C251.5136934 15.8284389 248.80947318 15.82345557 246.10525298 15.81842875 C229.30996789 15.78745316 212.51467936 15.76076924 195.7193737 15.74400997 C191.82828802 15.7400605 187.93720239 15.73605751 184.04611683 15.73198509 C183.07901126 15.73097673 182.11190569 15.72996837 181.11549389 15.72892945 C165.45855253 15.71193257 149.8017695 15.67083543 134.1449054 15.6199621 C118.06693652 15.56815082 101.98904898 15.53906292 85.91099733 15.53181309 C76.88520954 15.52715481 67.85968084 15.51244564 58.83397579 15.47206879 C51.14474961 15.43771254 43.45582928 15.42385194 35.76653076 15.43649293 C31.84588429 15.44230714 27.92588418 15.43854462 24.00533581 15.40832329 C20.40909731 15.38082933 16.8139603 15.38155603 13.21769588 15.40383374 C11.31490396 15.4085463 9.41210739 15.38389528 7.50948769 15.35786444 C-1.14512389 15.45207071 -7.12249236 17.74650208 -14.53176403 22.13701439 C-15.19176403 22.46701439 -15.85176403 22.79701439 -16.53176403 23.13701439 C-16.86102441 16.39327406 -17.02633781 11.04163905 -13.53176403 5.13701439 C-9.16973709 0.9930888 -5.90645634 0.01372383 0 0 Z " fill="#FEFEFE" transform="translate(25.531764030456543,41.862985610961914)"/>
</svg>
