<?xml version="1.0" encoding="UTF-8"?>
<svg version="1.1" xmlns="http://www.w3.org/2000/svg" width="248" height="212">
<path d="M0 0 C1.78280365 -0.01902626 1.78280365 -0.01902626 3.60162354 -0.03843689 C5.50956696 -0.03403343 5.50956696 -0.03403343 7.45605469 -0.02954102 C8.79116072 -0.03410968 10.12626441 -0.03941727 11.46136475 -0.04542542 C14.25542772 -0.0543383 17.04920466 -0.05195687 19.84326172 -0.04199219 C23.39830176 -0.03054034 26.95234284 -0.05066334 30.50725174 -0.07990932 C33.26479217 -0.09839421 36.02209903 -0.09795412 38.77968597 -0.0922718 C40.71930662 -0.09204673 42.65890567 -0.10884357 44.59844971 -0.12608337 C54.07690211 -0.05205656 61.70911232 1.89130152 69.62792969 7.21655273 C70.30339844 7.65612305 70.97886719 8.09569336 71.67480469 8.54858398 C73.87792969 10.40405273 73.87792969 10.40405273 74.95252991 12.08700943 C77.09289552 15.28746276 78.72634724 17.12533649 82.54641724 18.04990387 C85.96981403 18.28591856 89.33341275 18.30056387 92.76464844 18.24291992 C94.0628653 18.2488768 95.36108215 18.25483368 96.69863892 18.26097107 C99.51459732 18.27357666 102.32931331 18.26424538 105.14517212 18.23766327 C109.60020983 18.19574648 114.05435716 18.20297706 118.50952148 18.21661377 C125.5572321 18.23237066 132.6044158 18.21517752 139.65206051 18.18394303 C152.2703386 18.12864166 164.88862878 18.12009723 177.50700474 18.13744664 C181.93284456 18.14210752 186.3581949 18.12938999 190.78395081 18.10234118 C192.87506873 18.0914892 194.96607648 18.08730635 197.05722046 18.08595276 C199.6029307 18.08388908 202.14866504 18.07098796 204.69424438 18.04508972 C212.15476789 18.06112203 216.76395707 18.72458793 222.56542969 23.71655273 C226.86346176 28.71156298 228.25275518 32.82992682 228.25888062 39.38720703 C228.26356059 40.06596988 228.26824056 40.74473272 228.27306235 41.44406414 C228.28497451 43.7056687 228.27557041 45.96666304 228.26611328 48.22827148 C228.27018068 49.85487215 228.2755235 51.48147006 228.28204346 53.10806274 C228.29570289 57.51712971 228.29042409 61.92598572 228.2809062 66.3350563 C228.2733025 70.95270601 228.28035719 75.57033785 228.2850647 80.18798828 C228.29052017 87.94200884 228.28333608 95.69594364 228.26904297 103.44995117 C228.25271685 112.4102462 228.25800551 121.37033642 228.27452219 130.33062649 C228.28814297 138.02845988 228.29005382 145.72623167 228.28220618 153.42407322 C228.27753292 158.01959654 228.27689527 162.61502366 228.28681564 167.21054077 C228.29549164 171.53130031 228.28945188 175.8517962 228.27213287 180.17252731 C228.26817141 181.75676409 228.26929627 183.34102312 228.27592087 184.92525101 C228.28414022 187.09076477 228.27381115 189.25543798 228.25888062 191.42089844 C228.25774954 192.63171585 228.25661846 193.84253326 228.25545311 195.09004211 C227.54248634 201.34867219 224.57015727 205.36655458 219.87792969 209.40405273 C214.75749733 212.59173691 210.6854773 212.83184624 204.84472656 212.78500366 C203.49581455 212.79202362 203.49581455 212.79202362 202.11965179 212.7991854 C199.11184359 212.81113391 196.10449113 212.80167862 193.09667969 212.79223633 C190.93806696 212.79630208 188.77945631 212.80164399 186.62084961 212.8081665 C180.7614329 212.82184533 174.90217462 212.81653903 169.04275513 212.80702925 C162.91163708 212.79943565 156.78053264 212.80647743 150.64941406 212.81118774 C140.35316532 212.81664616 130.05698113 212.80945139 119.76074219 212.79516602 C107.85575945 212.77883938 95.95093085 212.78412783 84.04595184 212.80064523 C73.82585073 212.81425762 63.60579603 212.81618095 53.38568878 212.80832922 C47.28110731 212.80365137 41.1765983 212.80303102 35.07202148 212.81293869 C29.33298525 212.82160241 23.59414781 212.81559712 17.85513306 212.79825592 C15.74842662 212.79428793 13.64170346 212.79543045 11.53500366 212.80204391 C8.66015391 212.81023697 5.7859419 212.79996464 2.91113281 212.78500366 C2.07669395 212.79169583 1.2422551 212.79838799 0.38253021 212.80528295 C-5.89918826 212.7418388 -9.95884248 211.26543482 -14.80957031 207.09155273 C-19.24846834 201.93283341 -20.56764307 197.44257159 -20.50302124 190.73754883 C-20.50770121 189.98528204 -20.51238118 189.23301525 -20.51720297 188.4579525 C-20.52912961 185.94761687 -20.51970509 183.43782952 -20.51025391 180.92749023 C-20.51432065 179.12355227 -20.51966311 177.3196168 -20.52618408 175.51568604 C-20.53985125 170.6231703 -20.53456148 165.73084452 -20.52504683 160.8383255 C-20.51744716 155.71618643 -20.5244967 150.59406354 -20.52920532 145.47192383 C-20.53466197 136.87049441 -20.52747362 128.26914229 -20.51318359 119.66772461 C-20.49685727 109.72586815 -20.50214584 99.78419627 -20.51866281 89.84234428 C-20.53228024 81.30375527 -20.53419607 72.7652218 -20.5263468 64.22662544 C-20.52167171 59.12808329 -20.52104097 54.02962787 -20.53095627 48.93109131 C-20.53962736 44.13757443 -20.53360135 39.34429535 -20.5162735 34.55080414 C-20.51230943 32.79241073 -20.51344134 31.03399729 -20.52006149 29.27561188 C-20.52827032 26.87365736 -20.51796388 24.47246285 -20.50302124 22.07055664 C-20.50971341 21.37619192 -20.51640557 20.6818272 -20.52330053 19.96642113 C-20.4516542 14.02104186 -18.64543909 10.17445429 -14.80957031 5.71655273 C-10.15409768 1.71068093 -6.134671 0.03186541 0 0 Z " fill="#74CFFA" transform="translate(20.1220703125,-0.404052734375)"/>
<path d="M0 0 C1.78280365 -0.01902626 1.78280365 -0.01902626 3.60162354 -0.03843689 C5.50956696 -0.03403343 5.50956696 -0.03403343 7.45605469 -0.02954102 C8.79116072 -0.03410968 10.12626441 -0.03941727 11.46136475 -0.04542542 C14.25542772 -0.0543383 17.04920466 -0.05195687 19.84326172 -0.04199219 C23.39830176 -0.03054034 26.95234284 -0.05066334 30.50725174 -0.07990932 C33.26479217 -0.09839421 36.02209903 -0.09795412 38.77968597 -0.0922718 C40.71930662 -0.09204673 42.65890567 -0.10884357 44.59844971 -0.12608337 C54.07690211 -0.05205656 61.70911232 1.89130152 69.62792969 7.21655273 C70.30339844 7.65612305 70.97886719 8.09569336 71.67480469 8.54858398 C73.87792969 10.40405273 73.87792969 10.40405273 74.95252991 12.08700943 C77.09289552 15.28746276 78.72634724 17.12533649 82.54641724 18.04990387 C85.96981403 18.28591856 89.33341275 18.30056387 92.76464844 18.24291992 C94.0628653 18.2488768 95.36108215 18.25483368 96.69863892 18.26097107 C99.51459732 18.27357666 102.32931331 18.26424538 105.14517212 18.23766327 C109.60020983 18.19574648 114.05435716 18.20297706 118.50952148 18.21661377 C125.5572321 18.23237066 132.6044158 18.21517752 139.65206051 18.18394303 C152.2703386 18.12864166 164.88862878 18.12009723 177.50700474 18.13744664 C181.93284456 18.14210752 186.3581949 18.12938999 190.78395081 18.10234118 C192.87506873 18.0914892 194.96607648 18.08730635 197.05722046 18.08595276 C199.6029307 18.08388908 202.14866504 18.07098796 204.69424438 18.04508972 C212.15476789 18.06112203 216.76395707 18.72458793 222.56542969 23.71655273 C228.24494481 30.31707031 228.26626214 35.91618333 228.06542969 44.27905273 C228.05189453 45.34897461 228.03835937 46.41889648 228.02441406 47.52124023 C227.98921592 50.14936785 227.93997662 52.77644467 227.87792969 55.40405273 C227.59046875 54.80850586 227.30300781 54.21295898 227.00683594 53.59936523 C225.81917841 51.19246781 225.81917841 51.19246781 223.81542969 48.27905273 C221.60365969 44.49446851 221.28874683 40.96308816 221.05371094 36.63842773 C220.95471974 34.23300721 220.95471974 34.23300721 219.87792969 31.40405273 C215.45408086 28.81257451 210.81328932 29.1157751 205.84436035 29.12989807 C204.93298388 29.12466139 204.02160741 29.11942471 203.08261347 29.11402935 C200.02801305 29.09902452 196.97358006 29.09832409 193.91894531 29.09765625 C191.72930112 29.09003527 189.5396596 29.08160788 187.35002136 29.07243347 C181.40181916 29.05047978 175.45366836 29.04168876 169.50543022 29.03660703 C165.79083011 29.0329655 162.07624352 29.02672661 158.36164856 29.01960564 C146.07624431 28.99637567 133.79087494 28.98239688 121.50544924 28.9790696 C120.84348985 28.97888679 120.18153047 28.97870398 119.49951172 28.97851562 C118.50535967 28.9782448 118.50535967 28.9782448 117.49112374 28.97796851 C106.74412938 28.97442436 95.99733508 28.94738376 85.25041014 28.91001774 C74.2133839 28.87195027 63.17646199 28.85301302 52.13936949 28.85226959 C45.9436218 28.85147532 39.74813243 28.84266697 33.55244446 28.81427193 C27.72798982 28.78817459 21.90400929 28.78583961 16.07952309 28.80192757 C13.94013247 28.8037485 11.8007151 28.79699362 9.66138268 28.78110886 C6.74418799 28.76076598 3.82867074 28.7711307 0.91149902 28.7893219 C0.06179236 28.77612193 -0.7879143 28.76292196 -1.66336966 28.749322 C-5.9945929 28.81115997 -7.62965592 29.01645931 -11.15126801 31.78842068 C-13.29308849 34.63102661 -13.69008949 35.84791462 -13.68457031 39.34155273 C-13.92460876 44.08584206 -15.09328993 46.64102256 -18.12207031 50.40405273 C-18.78207031 51.39405273 -19.44207031 52.38405273 -20.12207031 53.40405273 C-20.19644608 47.95974691 -20.25077898 42.51573944 -20.28686523 37.07104492 C-20.30191502 35.22040655 -20.32235964 33.36980362 -20.34838867 31.51928711 C-20.38494011 28.85318228 -20.40183485 26.18755065 -20.41503906 23.52124023 C-20.43052292 22.69913055 -20.44600677 21.87702087 -20.46195984 21.02999878 C-20.46380523 14.67470658 -19.03395924 10.62597771 -14.80957031 5.71655273 C-10.15409768 1.71068093 -6.134671 0.03186541 0 0 Z " fill="#3EA0DD" transform="translate(20.1220703125,-0.404052734375)"/>
<path d="M0 0 C0.86135803 0.00086648 1.72271606 0.00173296 2.61017585 0.0026257 C3.51813462 -0.00034542 4.42609339 -0.00331654 5.36156607 -0.0063777 C8.42855564 -0.01510512 11.49550636 -0.01657635 14.56250739 -0.01806521 C16.75155956 -0.02269058 18.94061092 -0.02771485 21.12966132 -0.03311038 C27.09462332 -0.04626463 33.05957405 -0.05268536 39.02454829 -0.05712104 C42.74783266 -0.06004725 46.47111392 -0.06415121 50.19439673 -0.06862521 C61.83367364 -0.08230888 73.47294405 -0.09198695 85.11222839 -0.0958271 C86.45291384 -0.09627057 87.79359929 -0.09671714 89.13428473 -0.09716678 C89.79931478 -0.09738821 90.46434482 -0.09760964 91.14952728 -0.09783778 C101.92258349 -0.10178477 112.69557202 -0.11923407 123.46860209 -0.1425263 C134.52357259 -0.16623549 145.57850742 -0.17844397 156.63350344 -0.17986822 C162.84265818 -0.18091811 169.05171757 -0.18686483 175.26084876 -0.20468783 C181.10156927 -0.22112614 186.94212231 -0.22334464 192.78285766 -0.21454883 C194.92868918 -0.21377614 197.07452955 -0.21815147 199.22033858 -0.22800708 C202.14613992 -0.24065864 205.07134209 -0.23488666 207.99713874 -0.22442508 C208.84957388 -0.23248148 209.70200902 -0.24053789 210.58027554 -0.24883842 C215.2250692 -0.20990308 218.30213206 0.10664813 222.05762458 3.1430676 C224.77884143 7.22489288 224.19519807 10.39678221 224.05762458 15.1430676 C223.51552238 14.86013236 222.97342018 14.57719713 222.41489065 14.2856881 C216.68109621 11.4881342 212.12070666 10.56703363 205.78427863 10.64186215 C204.45095604 10.63356056 204.45095604 10.63356056 203.09069765 10.62509125 C200.13585986 10.6115644 197.18187847 10.62641043 194.22705817 10.64135861 C192.0991808 10.6375726 189.9713059 10.63207024 187.84343696 10.62498593 C182.08118166 10.61105272 176.31922565 10.62218555 170.55698705 10.63869715 C164.52111535 10.65257056 158.48526062 10.64608509 152.44937873 10.64256406 C142.31646642 10.63986417 132.18367272 10.65332001 122.05078864 10.67651486 C110.33945712 10.70313748 98.6283237 10.70486627 86.91697228 10.6931265 C75.64289378 10.68234502 64.36888687 10.6885378 53.09481406 10.70268178 C48.2999131 10.70843689 43.5050646 10.70836264 38.71016288 10.70361638 C33.06463963 10.6988417 27.41933317 10.70896887 21.77385116 10.73057103 C19.70304255 10.7361318 17.63221309 10.73661072 15.56140304 10.73161817 C12.73302981 10.72565464 9.90531702 10.73819106 7.07700324 10.75538754 C5.85029302 10.74637248 5.85029302 10.74637248 4.59880078 10.73717529 C-0.66481302 10.79530105 -4.21756902 11.81639691 -8.94237542 14.1430676 C-9.93237542 14.4730676 -10.92237542 14.8030676 -11.94237542 15.1430676 C-12.72972401 7.11211201 -12.72972401 7.11211201 -9.50487542 3.1430676 C-8.65925042 2.4830676 -7.81362542 1.8230676 -6.94237542 1.1430676 C-5.09154244 -0.70776538 -2.46384914 0.01220052 0 0 Z " fill="#FEFEFE" transform="translate(17.942375421524048,27.856932401657104)"/>
</svg>
