<?xml version="1.0" standalone="no"?>
<!DOCTYPE svg PUBLIC "-//W3C//DTD SVG 20010904//EN"
 "http://www.w3.org/TR/2001/REC-SVG-20010904/DTD/svg10.dtd">
<svg version="1.0" xmlns="http://www.w3.org/2000/svg"
 width="552.000000pt" height="564.000000pt" viewBox="0 0 552.000000 564.000000"
 preserveAspectRatio="xMidYMid meet">

<g transform="translate(0.000000,564.000000) scale(0.100000,-0.100000)"
fill="#000000" stroke="none">
<path d="M2510 5630 c-538 -56 -1039 -260 -1460 -596 -115 -92 -328 -307 -426
-430 -324 -405 -520 -866 -601 -1409 -25 -169 -25 -581 0 -749 69 -462 214
-850 452 -1205 443 -664 1110 -1092 1890 -1213 171 -26 567 -32 725 -10 519
73 946 253 1360 572 125 96 376 349 471 475 317 417 497 849 576 1380 25 169
25 581 0 749 -98 657 -362 1192 -806 1637 -426 426 -947 691 -1535 780 -149
23 -507 33 -646 19z m490 -41 c848 -78 1607 -555 2066 -1295 191 -308 326
-681 385 -1065 33 -209 33 -609 0 -818 -115 -745 -491 -1382 -1076 -1826
-1186 -900 -2868 -659 -3770 540 -282 375 -462 806 -536 1286 -33 209 -33 609
0 818 47 303 129 565 261 837 141 287 331 547 573 780 560 541 1330 814 2097
743z"/>
<path d="M1545 3844 c-49 -5 -145 -35 -145 -46 0 -4 -4 -8 -10 -8 -25 0 -82
-78 -107 -146 -17 -46 -18 -105 -18 -829 0 -730 1 -783 18 -830 16 -44 52
-101 82 -130 5 -6 28 -19 50 -29 22 -10 49 -24 60 -30 27 -15 1445 -22 1445
-7 0 5 -4 13 -10 16 -5 3 -10 40 -10 81 l0 74 -647 0 c-623 1 -733 5 -741 29
-2 6 -10 11 -18 11 -8 0 -14 7 -14 15 0 8 -4 15 -9 15 -27 0 -31 108 -31 785
0 677 4 785 31 785 5 0 9 6 9 14 0 8 19 24 43 35 43 21 49 21 1059 21 724 0
1025 -3 1049 -11 38 -13 89 -60 89 -83 0 -8 5 -18 10 -21 6 -3 10 -41 10 -84
0 -87 3 -91 77 -91 17 0 35 -4 38 -10 3 -5 17 -10 31 -10 l24 0 0 120 c0 189
-39 271 -160 332 l-65 33 -1050 1 c-577 1 -1068 -1 -1090 -2z"/>
<path d="M3660 3223 c-109 -43 -170 -97 -217 -192 -23 -48 -27 -68 -27 -146 0
-82 4 -97 32 -157 37 -76 96 -138 161 -170 36 -18 64 -22 128 -23 53 0 86 4
95 13 6 6 20 12 30 12 10 0 18 3 18 8 0 4 18 18 39 31 21 12 46 37 56 55 10
17 21 33 24 36 25 21 61 144 61 202 -1 78 -51 191 -111 251 -50 49 -126 81
-204 84 -38 1 -77 0 -85 -4z"/>
<path d="M3595 2370 c-106 -17 -247 -71 -315 -122 -47 -35 -150 -142 -150
-155 0 -7 -3 -13 -8 -13 -15 0 -57 -98 -68 -162 -7 -40 19 -108 41 -108 7 0
15 -6 18 -12 3 -10 136 -13 619 -13 l615 0 31 32 c27 27 32 39 32 80 0 69 -27
140 -75 202 -40 52 -130 141 -142 141 -7 0 -13 4 -13 8 0 12 -158 89 -211 102
-106 28 -266 36 -374 20z"/>
</g>
</svg>
