<?xml version="1.0" encoding="UTF-8"?>
<svg version="1.1" xmlns="http://www.w3.org/2000/svg" width="248" height="208">
<path d="M0 0 C1.78280365 -0.01902626 1.78280365 -0.01902626 3.60162354 -0.03843689 C5.50956696 -0.03403343 5.50956696 -0.03403343 7.45605469 -0.02954102 C8.79116072 -0.03410968 10.12626441 -0.03941727 11.46136475 -0.04542542 C14.25542772 -0.0543383 17.04920466 -0.05195687 19.84326172 -0.04199219 C23.39830176 -0.03054034 26.95234284 -0.05066334 30.50725174 -0.07990932 C33.26479217 -0.09839421 36.02209903 -0.09795412 38.77968597 -0.0922718 C40.71930662 -0.09204673 42.65890567 -0.10884357 44.59844971 -0.12608337 C54.07690211 -0.05205656 61.70911232 1.89130152 69.62792969 7.21655273 C70.30339844 7.65612305 70.97886719 8.09569336 71.67480469 8.54858398 C73.87792969 10.40405273 73.87792969 10.40405273 74.95252991 12.08700943 C77.09289552 15.28746276 78.72634724 17.12533649 82.54641724 18.04990387 C85.96981403 18.28591856 89.33341275 18.30056387 92.76464844 18.24291992 C94.0628653 18.2488768 95.36108215 18.25483368 96.69863892 18.26097107 C99.51459732 18.27357666 102.32931331 18.26424538 105.14517212 18.23766327 C109.60020983 18.19574648 114.05435716 18.20297706 118.50952148 18.21661377 C125.5572321 18.23237066 132.6044158 18.21517752 139.65206051 18.18394303 C152.2703386 18.12864166 164.88862878 18.12009723 177.50700474 18.13744664 C181.93284456 18.14210752 186.3581949 18.12938999 190.78395081 18.10234118 C192.87506873 18.0914892 194.96607648 18.08730635 197.05722046 18.08595276 C199.6029307 18.08388908 202.14866504 18.07098796 204.69424438 18.04508972 C212.15476789 18.06112203 216.76395707 18.72458793 222.56542969 23.71655273 C226.81407353 28.65416584 228.25267114 32.75004832 228.25888062 39.23535156 C228.26356059 39.8977802 228.26824056 40.56020884 228.27306235 41.24271107 C228.28497086 43.4490427 228.27557192 45.6547484 228.26611328 47.86108398 C228.27018084 49.44827638 228.27552376 51.03546593 228.28204346 52.62265015 C228.29570094 56.92428426 228.29042491 61.22570212 228.2809062 65.52733994 C228.27330148 70.03288091 228.28035747 74.53840359 228.2850647 79.04394531 C228.29051988 86.60965289 228.28333686 94.17527257 228.26904297 101.7409668 C228.2527169 110.48313727 228.25800558 119.22509783 228.27452219 127.96726322 C228.28814381 135.47826208 228.2900534 142.98919782 228.28220618 150.50020504 C228.27753338 154.98394651 228.27689398 159.46758936 228.28681564 163.95132446 C228.29549288 168.16702711 228.28944964 172.38245957 228.27213287 176.59813309 C228.26817207 178.14366838 228.26929514 179.68922649 228.27592087 181.23475266 C228.28414289 183.34772486 228.2738081 185.45983625 228.25888062 187.57275391 C228.25774954 188.75407394 228.25661846 189.93539398 228.25545311 191.1525116 C227.53316643 197.37343648 224.54089523 201.39173355 219.87792969 205.40405273 C214.75749733 208.59173691 210.6854773 208.83184624 204.84472656 208.78500366 C203.49581455 208.79202362 203.49581455 208.79202362 202.11965179 208.7991854 C199.11184359 208.81113391 196.10449113 208.80167862 193.09667969 208.79223633 C190.93806696 208.79630208 188.77945631 208.80164399 186.62084961 208.8081665 C180.7614329 208.82184533 174.90217462 208.81653903 169.04275513 208.80702925 C162.91163708 208.79943565 156.78053264 208.80647743 150.64941406 208.81118774 C140.35316532 208.81664616 130.05698113 208.80945139 119.76074219 208.79516602 C107.85575945 208.77883938 95.95093085 208.78412783 84.04595184 208.80064523 C73.82585073 208.81425762 63.60579603 208.81618095 53.38568878 208.80832922 C47.28110731 208.80365137 41.1765983 208.80303102 35.07202148 208.81293869 C29.33298525 208.82160241 23.59414781 208.81559712 17.85513306 208.79825592 C15.74842662 208.79428793 13.64170346 208.79543045 11.53500366 208.80204391 C8.66015391 208.81023697 5.7859419 208.79996464 2.91113281 208.78500366 C2.07669395 208.79169583 1.2422551 208.79838799 0.38253021 208.80528295 C-5.89918826 208.7418388 -9.95884248 207.26543482 -14.80957031 203.09155273 C-19.27612045 197.90069717 -20.49716382 193.69441236 -20.50302124 186.8894043 C-20.50770121 186.15347172 -20.51238118 185.41753914 -20.51720297 184.65930557 C-20.52912664 182.20424389 -20.51970631 179.74974313 -20.51025391 177.29467773 C-20.51432078 175.53014806 -20.51966332 173.76562094 -20.52618408 172.00109863 C-20.53984967 167.21601608 -20.53456214 162.43112778 -20.52504683 157.64604187 C-20.51744633 152.63601156 -20.52449693 147.62599777 -20.52920532 142.6159668 C-20.53466173 134.20285052 -20.52747425 125.78981326 -20.51318359 117.37670898 C-20.49685732 107.65297741 -20.5021459 97.92943455 -20.51866281 88.20570755 C-20.53228092 79.85395315 -20.53419574 71.50225554 -20.5263468 63.15049362 C-20.52167209 58.16373349 -20.52103993 53.17706204 -20.53095627 48.19030762 C-20.53962836 43.50184809 -20.53359953 38.81363166 -20.5162735 34.12519836 C-20.51230996 32.40550642 -20.51344043 30.68579399 -20.52006149 28.96611023 C-20.52827247 26.61669859 -20.5179614 24.26806348 -20.50302124 21.91870117 C-20.50189016 20.60464294 -20.50075909 19.29058472 -20.49959373 17.93670654 C-19.81654543 11.54512115 -16.91781031 7.53061971 -12.12207031 3.40405273 C-7.91638399 0.95904541 -4.85148297 0.02520013 0 0 Z " fill="#73CEFA" transform="translate(20.1220703125,-0.404052734375)"/>
<path d="M0 0 C1.78280365 -0.01902626 1.78280365 -0.01902626 3.60162354 -0.03843689 C5.50956696 -0.03403343 5.50956696 -0.03403343 7.45605469 -0.02954102 C8.79116072 -0.03410968 10.12626441 -0.03941727 11.46136475 -0.04542542 C14.25542772 -0.0543383 17.04920466 -0.05195687 19.84326172 -0.04199219 C23.39830176 -0.03054034 26.95234284 -0.05066334 30.50725174 -0.07990932 C33.26479217 -0.09839421 36.02209903 -0.09795412 38.77968597 -0.0922718 C40.71930662 -0.09204673 42.65890567 -0.10884357 44.59844971 -0.12608337 C54.07690211 -0.05205656 61.70911232 1.89130152 69.62792969 7.21655273 C70.30339844 7.65612305 70.97886719 8.09569336 71.67480469 8.54858398 C73.87792969 10.40405273 73.87792969 10.40405273 74.95252991 12.08700943 C77.09289552 15.28746276 78.72634724 17.12533649 82.54641724 18.04990387 C85.96981403 18.28591856 89.33341275 18.30056387 92.76464844 18.24291992 C94.0628653 18.2488768 95.36108215 18.25483368 96.69863892 18.26097107 C99.51459732 18.27357666 102.32931331 18.26424538 105.14517212 18.23766327 C109.60020983 18.19574648 114.05435716 18.20297706 118.50952148 18.21661377 C125.5572321 18.23237066 132.6044158 18.21517752 139.65206051 18.18394303 C152.2703386 18.12864166 164.88862878 18.12009723 177.50700474 18.13744664 C181.93284456 18.14210752 186.3581949 18.12938999 190.78395081 18.10234118 C192.87506873 18.0914892 194.96607648 18.08730635 197.05722046 18.08595276 C199.6029307 18.08388908 202.14866504 18.07098796 204.69424438 18.04508972 C212.15476789 18.06112203 216.76395707 18.72458793 222.56542969 23.71655273 C227.47804532 29.42580874 228.30507795 34.0281567 228.06542969 41.27905273 C228.05189453 42.06280273 228.03835937 42.84655273 228.02441406 43.65405273 C227.98934758 45.57102056 227.93555041 47.48763025 227.87792969 49.40405273 C225.87792969 47.40405273 225.87792969 47.40405273 224.12792969 44.02905273 C221.53029052 39.35913963 217.91191817 37.0820489 212.87792969 35.40405273 C210.00901247 35.3014055 207.16411529 35.25624747 204.2948761 35.25688171 C203.40774294 35.25320503 202.52060977 35.24952834 201.60659379 35.24574023 C198.62191936 35.23469164 195.63727973 35.23085755 192.65258789 35.22705078 C190.51736846 35.22078701 188.38215012 35.21414029 186.24693298 35.20713806 C180.43684521 35.1897202 174.62676567 35.1791741 168.81665826 35.17093253 C165.18748026 35.16578393 161.55830483 35.15970812 157.92912865 35.1534214 C146.57657783 35.13436692 135.22403353 35.12013646 123.8714698 35.11180943 C110.76269613 35.10203579 97.65409126 35.07571389 84.54537708 35.03530854 C74.41618687 35.00515748 64.28704508 34.9903415 54.15781087 34.98702842 C48.1067263 34.98467676 42.05582201 34.97570101 36.00478554 34.95056725 C30.31091094 34.92729943 24.61733548 34.92304827 18.92342567 34.93332863 C16.83528651 34.93382441 14.7471327 34.92749152 12.65903854 34.91377258 C9.80430144 34.89606847 6.95063962 34.90315278 4.09590149 34.91630554 C3.27302385 34.9053363 2.45014621 34.89436705 1.60233289 34.8830654 C-4.77926819 34.95386407 -10.29577652 36.61446406 -14.92675781 41.18530273 C-15.27996094 41.75249023 -15.63316406 42.31967773 -15.99707031 42.90405273 C-16.36574219 43.47124023 -16.73441406 44.03842773 -17.11425781 44.62280273 C-18.18692322 46.51867647 -19.15411923 48.45301846 -20.12207031 50.40405273 C-20.19649038 45.38699552 -20.25079939 40.37026301 -20.28686523 35.3527832 C-20.30190769 33.6476481 -20.32234685 31.94255141 -20.34838867 30.23754883 C-20.38497315 27.77993262 -20.40184204 25.32283005 -20.41503906 22.86499023 C-20.43052292 22.10850189 -20.44600677 21.35201355 -20.46195984 20.57260132 C-20.46389206 14.43044365 -18.87927019 10.44620395 -14.80957031 5.71655273 C-10.15409768 1.71068093 -6.134671 0.03186541 0 0 Z " fill="#3EA0DC" transform="translate(20.1220703125,-0.404052734375)"/>
</svg>
