<?xml version="1.0" encoding="UTF-8"?>
<svg version="1.1" xmlns="http://www.w3.org/2000/svg" width="372" height="312">
<path d="M0 0 C1.92468769 0.00103989 3.84937751 -0.00000587 5.77406311 -0.00302124 C9.79102661 -0.00284273 13.80717954 0.01781872 17.82397461 0.05419922 C22.93895167 0.09954097 28.05274589 0.10065762 33.16786861 0.08716393 C37.13768277 0.08043791 41.10723378 0.09383144 45.07699776 0.11342239 C46.96138693 0.12104928 48.84580556 0.12345533 50.73020744 0.1202507 C69.97563606 0.11477737 85.43126925 3.91528863 99.86328125 17.54296875 C107.03515625 24.75354092 107.03515625 24.75354092 107.03515625 27.7265625 C108.06183851 27.72195354 109.08852077 27.71734457 110.14631462 27.71259594 C135.14364605 27.6015302 160.14094543 27.51940151 185.1384716 27.46750164 C197.22716931 27.44173524 209.31570388 27.40661435 221.40429688 27.34936523 C231.94241481 27.2994827 242.48041459 27.26726012 253.01864731 27.25612003 C258.5970721 27.24960956 264.17515888 27.23434023 269.75347519 27.19791222 C275.00823864 27.16387638 280.26252608 27.15352498 285.5173893 27.16102409 C287.44183378 27.15965295 289.36629481 27.14976594 291.29064369 27.13053513 C309.79871029 26.95470943 309.79871029 26.95470943 318.03515625 32.7265625 C318.94265625 33.2834375 319.85015625 33.8403125 320.78515625 34.4140625 C325.84064561 39.60998212 330.14845636 46.44918388 330.17217064 53.83155918 C330.17978245 55.09051592 330.17978245 55.09051592 330.18754804 56.37490612 C330.1880458 57.29706494 330.18854356 58.21922376 330.1890564 59.16932678 C330.19343865 60.14897052 330.1978209 61.12861425 330.20233595 62.13794416 C330.21573979 65.43579607 330.22190643 68.73362124 330.22802734 72.03149414 C330.23592715 74.39006675 330.24419602 76.74863814 330.25280762 79.10720825 C330.27677899 86.19690268 330.29195909 93.28659794 330.30486768 100.37632027 C330.30981807 103.04729842 330.31526596 105.71827553 330.320683 108.38925277 C330.34439242 120.1669381 330.3645771 131.94462546 330.3763485 143.72232914 C330.3792781 146.60484382 330.38223978 149.48735846 330.38525391 152.36987305 C330.38599996 153.0862916 330.38674601 153.80271015 330.38751467 154.54083835 C330.40015966 166.13814882 330.43337124 177.73530568 330.47505574 189.33254439 C330.51752232 201.2452794 330.54104908 213.15793588 330.54626906 225.07074636 C330.54967817 231.75685985 330.56194372 238.44269669 330.5943718 245.12874031 C330.62445565 251.42181991 330.6307627 257.71448177 330.61898804 264.00761795 C330.61876732 266.31423055 330.62707032 268.62086254 330.64464188 270.92740822 C330.66737329 274.08374326 330.65901893 277.23856865 330.64315796 280.39491272 C330.65704005 281.30145649 330.67092213 282.20800025 330.68522489 283.14201504 C330.58420551 291.33635188 327.2954006 299.25189698 321.70745933 305.35939521 C313.35600035 312.1870102 304.66731727 313.60092629 294.20724487 313.48173523 C292.85106667 313.48794688 291.4948984 313.49677436 290.1387521 313.50796062 C286.44512733 313.53089346 282.75246235 313.51685215 279.05885863 313.49625146 C275.06287949 313.48053406 271.06703841 313.49957468 267.07107544 313.51405334 C259.25663656 313.53681668 251.44255658 313.52744184 243.62812506 313.50655248 C237.27549578 313.49023607 230.92296413 313.48607684 224.57031631 313.49051857 C223.21160825 313.49146458 223.21160825 313.49146458 221.82545153 313.49242971 C219.98507123 313.49377582 218.14469095 313.4951554 216.30431069 313.49656806 C199.06896118 313.50848978 181.83380797 313.48447646 164.59850313 313.44754998 C149.82129592 313.41664883 135.04431443 313.41429289 120.26708984 313.43334961 C103.0882887 313.45547803 85.90961395 313.46159195 68.73080647 313.44102699 C66.89799255 313.43886414 65.06517861 313.43671504 63.23236465 313.43457985 C62.33068346 313.43351348 61.42900227 313.43244712 60.4999974 313.43134844 C54.15662032 313.42488847 47.81330848 313.42963426 41.46993637 313.43860435 C33.73729323 313.44915629 26.00491454 313.44158665 18.27232014 313.41114857 C14.32969409 313.39605473 10.3874849 313.38881078 6.44484711 313.40333939 C2.83123747 313.41641527 -0.78154877 313.40615961 -4.39506374 313.37778065 C-6.31176608 313.36858932 -8.22853826 313.3837418 -10.14519417 313.39994162 C-19.35539307 313.29105649 -27.72881422 310.86893636 -34.59769726 304.35207939 C-44.3468864 292.76043818 -42.80897323 279.24599955 -42.7253418 264.92138672 C-42.73184103 262.29547399 -42.74090633 259.66956656 -42.75233459 257.04367065 C-42.77506733 250.6730119 -42.76574278 244.3027941 -42.74483373 237.93214451 C-42.72850063 232.75227835 -42.72436213 227.57253192 -42.72879982 222.39264297 C-42.7294305 221.65335927 -42.73006117 220.91407557 -42.73071096 220.15238933 C-42.73205711 218.65022902 -42.73343668 217.14806874 -42.73484931 215.64590849 C-42.74676362 201.58664814 -42.72277673 187.52762868 -42.68583123 173.46842314 C-42.65492875 161.42010707 -42.65257613 149.37206787 -42.67163086 137.32373047 C-42.69376988 123.30918306 -42.69986383 109.29479061 -42.67930824 95.28023541 C-42.67714544 93.78444046 -42.67499634 92.28864549 -42.6728611 90.79285049 C-42.67179473 90.05701592 -42.67072837 89.32118134 -42.66962969 88.56304874 C-42.66317565 83.39186617 -42.66790893 78.22076371 -42.6768856 73.04958725 C-42.68855411 66.08410896 -42.67327327 59.11911259 -42.64014244 52.1537056 C-42.63194653 49.60039305 -42.63220584 47.04703698 -42.64162064 44.49372864 C-42.65307723 41.00284958 -42.63361907 37.5134371 -42.60649109 34.02267456 C-42.61696258 33.01721427 -42.62743407 32.01175398 -42.63822287 30.97582519 C-42.51568232 22.4861123 -39.5021164 14.41012859 -33.61317444 8.09384155 C-23.33441544 -0.43231886 -12.66380014 -0.13622572 0 0 Z " fill="#73CEFA" transform="translate(41.96484375,-0.7265625)"/>
<path d="M0 0 C1.92468769 0.00103989 3.84937751 -0.00000587 5.77406311 -0.00302124 C9.79102661 -0.00284273 13.80717954 0.01781872 17.82397461 0.05419922 C22.93895167 0.09954097 28.05274589 0.10065762 33.16786861 0.08716393 C37.13768277 0.08043791 41.10723378 0.09383144 45.07699776 0.11342239 C46.96138693 0.12104928 48.84580556 0.12345533 50.73020744 0.1202507 C69.97563606 0.11477737 85.43126925 3.91528863 99.86328125 17.54296875 C107.03515625 24.75354092 107.03515625 24.75354092 107.03515625 27.7265625 C108.06183851 27.72195354 109.08852077 27.71734457 110.14631462 27.71259594 C135.14364605 27.6015302 160.14094543 27.51940151 185.1384716 27.46750164 C197.22716931 27.44173524 209.31570388 27.40661435 221.40429688 27.34936523 C231.94241481 27.2994827 242.48041459 27.26726012 253.01864731 27.25612003 C258.5970721 27.24960956 264.17515888 27.23434023 269.75347519 27.19791222 C275.00823864 27.16387638 280.26252608 27.15352498 285.5173893 27.16102409 C287.44183378 27.15965295 289.36629481 27.14976594 291.29064369 27.13053513 C309.79871029 26.95470943 309.79871029 26.95470943 318.03515625 32.7265625 C318.94265625 33.2834375 319.85015625 33.8403125 320.78515625 34.4140625 C326.72798741 40.5219723 330.17267662 47.43472344 330.1328125 55.92578125 C330.12958984 57.13427734 330.12636719 58.34277344 330.12304688 59.58789062 C330.11466797 60.85052734 330.10628906 62.11316406 330.09765625 63.4140625 C330.09314453 64.68830078 330.08863281 65.96253906 330.08398438 67.27539062 C330.07218498 70.42582814 330.05572222 73.57617199 330.03515625 76.7265625 C329.70515625 76.7265625 329.37515625 76.7265625 329.03515625 76.7265625 C328.88820313 76.1696875 328.74125 75.6128125 328.58984375 75.0390625 C326.04232617 66.37164637 321.97458034 60.39046935 314.16015625 55.734375 C309.53326145 53.5400021 305.39628421 52.47664191 300.27759838 52.47208691 C299.14606561 52.46625471 298.01453284 52.46042252 296.84871119 52.45441359 C295.61555102 52.45819292 294.38239085 52.46197224 293.11186218 52.46586609 C291.79409831 52.46204054 290.47633444 52.45821499 289.11863834 52.45427352 C285.46683162 52.44399014 281.81512304 52.44617621 278.16330826 52.45045412 C274.22249869 52.45292075 270.28171278 52.44390789 266.34091187 52.43641663 C258.62235341 52.42366541 250.90382974 52.4218765 243.18526252 52.42421689 C236.91068817 52.42599991 230.63612438 52.42425075 224.36155128 52.41999245 C223.46852105 52.41939726 222.57549082 52.41880207 221.65539906 52.41818884 C219.84118884 52.41697709 218.02697863 52.41576295 216.21276841 52.41454647 C199.19739747 52.40366908 182.18204635 52.40583423 165.16667429 52.41193131 C149.60494839 52.4170994 134.0432851 52.40584824 118.48157158 52.38683309 C102.49956686 52.36745425 86.51759176 52.35919886 70.53557521 52.36295635 C61.56423527 52.36486848 52.59294862 52.36237972 43.62161827 52.34824181 C35.98329952 52.33632638 28.34506684 52.33492485 20.7067469 52.34703197 C16.81094666 52.35291982 12.91530383 52.3540228 9.01951408 52.34202957 C5.44971597 52.33116783 1.88020666 52.33427739 -1.68957796 52.34829126 C-3.58544727 52.3521863 -5.48132943 52.34139334 -7.37716848 52.32999438 C-17.81989292 52.39604568 -26.30856745 54.28760409 -33.96484375 61.7265625 C-37.33823146 66.01607327 -39.51398964 70.45072938 -40.96484375 75.7265625 C-41.29484375 75.7265625 -41.62484375 75.7265625 -41.96484375 75.7265625 C-42.09225605 68.36184285 -42.17945129 60.9974104 -42.23950195 53.63183594 C-42.26455168 51.12944924 -42.29860117 48.62713502 -42.34204102 46.125 C-42.40311036 42.51544243 -42.43115049 38.90685731 -42.453125 35.296875 C-42.47893143 34.18917755 -42.50473785 33.0814801 -42.53132629 31.94021606 C-42.53452747 22.95224538 -39.87947312 14.81486909 -33.61317444 8.09384155 C-23.33441544 -0.43231886 -12.66380014 -0.13622572 0 0 Z " fill="#3EA0DC" transform="translate(41.96484375,-0.7265625)"/>
</svg>
